<?xml version="1.0" encoding="utf-8"?>
<!-- Generator: Adobe Illustrator 23.0.1, SVG Export Plug-In . SVG Version: 6.00 Build 0)  -->
<svg version="1.1" id="图层_1" xmlns="http://www.w3.org/2000/svg" xmlns:xlink="http://www.w3.org/1999/xlink" x="0px" y="0px"
	 viewBox="0 0 90 90" style="enable-background:new 0 0 90 90;" xml:space="preserve">
<style type="text/css">
	.st0{fill:#4A4F56;}
</style>
<path class="st0" d="M70.39,15.52c-14.02-14.02-36.76-14.02-50.78,0C7.01,28.11,5.74,47.73,15.76,61.76l-0.01,0
	c0.05,0.06,0.1,0.13,0.14,0.19c0.18,0.25,0.37,0.49,0.55,0.73c0.22,0.29,0.44,0.58,0.67,0.86c0.01,0.01,0.02,0.03,0.03,0.04
	C27.74,77.02,45,88,45,88s17.26-10.98,27.85-24.42c0.01-0.01,0.02-0.03,0.03-0.04c0.23-0.29,0.45-0.57,0.67-0.86
	c0.19-0.24,0.37-0.49,0.55-0.73c0.05-0.06,0.1-0.13,0.14-0.19l-0.01,0C84.26,47.73,82.99,28.11,70.39,15.52z M53.89,49.8
	c-4.91,4.91-12.87,4.91-17.77,0c-4.91-4.91-4.91-12.87,0-17.77c4.91-4.91,12.87-4.91,17.77,0C58.8,36.93,58.8,44.89,53.89,49.8z"/>
</svg>
