<svg id="图层_1" data-name="图层 1" xmlns="http://www.w3.org/2000/svg" viewBox="0 0 90 90"><defs><style>.cls-1{fill:#c1f4ff;}</style></defs><title>点赞-实心</title><path class="cls-1" d="M79.74,30.77H60.62l-.7-23.29a7.71,7.71,0,0,0-14.14-4L21.1,41a5.42,5.42,0,0,0-.89,3V80.21a5.41,5.41,0,0,0,5.41,5.41H74.2a8.18,8.18,0,0,0,8-6.49l7.58-36A10.26,10.26,0,0,0,79.74,30.77Z"/><path class="cls-1" d="M12.57,36.54h-2A10.59,10.59,0,0,0,0,47.13V75A10.59,10.59,0,0,0,10.59,85.62h2a1.87,1.87,0,0,0,1.86-1.87V38.41A1.87,1.87,0,0,0,12.57,36.54Z"/></svg>