<svg id="图层_1" data-name="图层 1" xmlns="http://www.w3.org/2000/svg" viewBox="0 0 90 90"><defs><style>.cls-1{fill:#c1f4ff;}</style></defs><title>home02</title><path class="cls-1" d="M67.45,85.39H21.83A10.48,10.48,0,0,1,11.36,74.92V58.54a3.49,3.49,0,0,1,7,0V74.92a3.49,3.49,0,0,0,3.49,3.49H67.44a3.49,3.49,0,0,0,3.48-3.49V58.54a3.49,3.49,0,0,1,7,0V74.92A10.43,10.43,0,0,1,67.45,85.39Z"/><path class="cls-1" d="M85.5,79.58A3.48,3.48,0,0,1,82,76.11l-.1-30.66c0-1,0-1.88,0-2.79.14-4.88,0-7-1.93-8.38L49.61,13.52c-3.82-2.55-6.46-2.56-10.07,0L9.69,35a6.44,6.44,0,0,0,.07,8.81l3.78,3.12a3.49,3.49,0,0,1-4.46,5.37L5,48.93l-.12-.12a13.43,13.43,0,0,1,0-19l.21-.2L35.52,7.76A15.44,15.44,0,0,1,44.4,4.61a16.11,16.11,0,0,1,9.1,3.1l0,0L84,28.55c5.21,3.65,5,9.31,4.91,14.3,0,.86,0,1.73,0,2.59L89,76.07a3.5,3.5,0,0,1-3.48,3.51Z"/><path class="cls-1" d="M66.65,48.63a3,3,0,0,1-1.7-.52,36.14,36.14,0,0,0-6.14-3.34A35.75,35.75,0,0,0,52,42.66a36.89,36.89,0,0,0-14.58,0,36,36,0,0,0-12.91,5.45,3,3,0,0,1-3.39-5,42,42,0,0,1,15.1-6.35,42.32,42.32,0,0,1,17,0,42,42,0,0,1,15.1,6.35,3,3,0,0,1,.81,4.2A3.06,3.06,0,0,1,66.65,48.63Z"/><path class="cls-1" d="M43.06,67.43a1.6,1.6,0,1,0,1.6-1.6A1.6,1.6,0,0,0,43.06,67.43Z"/><path class="cls-1" d="M31.55,59.31H24.09a1.6,1.6,0,0,1,0-3.2h7.46a1.6,1.6,0,0,1,0,3.2Zm33.68,0H57.77a1.6,1.6,0,0,1,0-3.2h7.46a1.6,1.6,0,0,1,0,3.2Z"/></svg>