<?xml version="1.0" encoding="utf-8"?>
<!-- Generator: Adobe Illustrator 23.0.1, SVG Export Plug-In . SVG Version: 6.00 Build 0)  -->
<svg version="1.1" id="图层_1" xmlns="http://www.w3.org/2000/svg" xmlns:xlink="http://www.w3.org/1999/xlink" x="0px" y="0px"
	 viewBox="0 0 100 100" style="enable-background:new 0 0 100 100;" xml:space="preserve">
<style type="text/css">
	.st0{fill:#00E4FF;}
</style>
<g>
	<path class="st0" d="M50,50.1c-14.3,0-30.7,18.2-30.7,30.7C19.3,97.7,33.1,88,50,88s30.7,9.7,30.7-7.2C80.7,68.3,64.3,50.1,50,50.1
		z"/>
	<ellipse transform="matrix(0.9772 -0.2122 0.2122 0.9772 -4.7894 7.8492)" class="st0" cx="34.2" cy="26.2" rx="12.1" ry="17.2"/>
	
		<ellipse transform="matrix(0.8285 -0.5599 0.5599 0.8285 -23.7717 15.1951)" class="st0" cx="12.9" cy="46.4" rx="10.4" ry="14.7"/>
	<ellipse transform="matrix(0.2121 -0.9772 0.9772 0.2121 26.1365 84.9051)" class="st0" cx="65.7" cy="26.2" rx="17.2" ry="12.1"/>
	<ellipse transform="matrix(0.5778 -0.8162 0.8162 0.5778 -1.1546 90.59)" class="st0" cx="87" cy="46.4" rx="14.7" ry="10.4"/>
</g>
</svg>
