<?xml version="1.0" encoding="utf-8"?>
<!-- Generator: Adobe Illustrator 23.0.1, SVG Export Plug-In . SVG Version: 6.00 Build 0)  -->
<svg version="1.1" id="图层_1" xmlns="http://www.w3.org/2000/svg" xmlns:xlink="http://www.w3.org/1999/xlink" x="0px" y="0px"
	 viewBox="0 0 100 100" style="enable-background:new 0 0 100 100;" xml:space="preserve">
<style type="text/css">
	.st0{fill:#2AD75D;}
</style>
<g>
	<rect x="31.3" y="29.4" class="st0" width="37.4" height="8.6"/>
	<rect x="31.3" y="47.6" class="st0" width="37.4" height="8.6"/>
	<rect x="31.3" y="65.8" class="st0" width="37.4" height="8.6"/>
	<rect x="37.2" y="3.8" class="st0" width="25.7" height="8.6"/>
	<path class="st0" d="M78.9,3.8h-5.3v8.6h5.3c2.4,0,4.3,1.9,4.3,4.3v66.8c0,2.4-1.9,4.3-4.3,4.3H21.1c-2.4,0-4.3-1.9-4.3-4.3V16.6
		c0-2.4,1.9-4.3,4.3-4.3h5.3V3.8h-5.3c-7.1,0-12.8,5.8-12.8,12.8v66.8c0,7.1,5.8,12.8,12.8,12.8h57.7c7.1,0,12.8-5.8,12.8-12.8V16.6
		C91.7,9.5,85.9,3.8,78.9,3.8z"/>
</g>
</svg>
