<?xml version="1.0" encoding="utf-8"?>
<!-- Generator: Adobe Illustrator 23.0.1, SVG Export Plug-In . SVG Version: 6.00 Build 0)  -->
<svg version="1.1" id="图层_1" xmlns="http://www.w3.org/2000/svg" xmlns:xlink="http://www.w3.org/1999/xlink" x="0px" y="0px"
	 viewBox="0 0 100 100" style="enable-background:new 0 0 100 100;" xml:space="preserve">
<style type="text/css">
	.st0{fill:url(#SVGID_1_);}
	.st1{fill:url(#SVGID_2_);}
</style>
<g>
	<linearGradient id="SVGID_1_" gradientUnits="userSpaceOnUse" x1="45.4355" y1="69.469" x2="96.1916" y2="69.469">
		<stop  offset="0" style="stop-color:#00ECFF"/>
		<stop  offset="1" style="stop-color:#00B2FF"/>
	</linearGradient>
	<path class="st0" d="M70.8,42c-16.7,0-25.4,6.5-25.4,12.9V84c0,6.4,8.7,12.9,25.4,12.9c16.5,0,25.2-6.4,25.4-12.8V54.9
		C96.2,48.5,87.5,42,70.8,42z M88.8,78.9v5.2c0,1.3-5.6,5.5-18,5.5c-12.4,0-18-4.2-18-5.5v-5.2c4.6,2.3,10.8,3.5,18,3.5
		C78,82.4,84.2,81.2,88.8,78.9z M88.8,64.3v5.2c0,1.3-5.6,5.5-18,5.5c-12.4,0-18-4.2-18-5.5v-5.2c4.6,2.3,10.8,3.5,18,3.5
		C78,67.9,84.2,66.6,88.8,64.3z M70.8,60.5c-12.4,0-18-4.3-18-5.5c0-1.3,5.6-5.5,18-5.5c12.4,0,18,4.2,18,5.5
		C88.8,56.2,83.2,60.5,70.8,60.5z"/>
	<linearGradient id="SVGID_2_" gradientUnits="userSpaceOnUse" x1="3.7819" y1="47.0891" x2="78.6625" y2="47.0891">
		<stop  offset="0" style="stop-color:#00ECFF"/>
		<stop  offset="1" style="stop-color:#00B2FF"/>
	</linearGradient>
	<path class="st1" d="M37.8,65.2c1,0,2-0.3,2.7-1c0.7-0.7,1.1-1.7,1.1-2.7c0-2-1.6-3.6-3.6-3.7C20.8,57.1,11.2,51,11.2,47.1V32.2
		c6.9,4.3,18.3,6.9,30,6.9v0c11.8,0,23.2-2.7,30-7v2.6c0,2,1.7,3.7,3.7,3.7c2,0,3.7-1.7,3.7-3.7V21.1C78.7,9.3,59.4,3,41.2,3
		C23.1,3,3.8,9.3,3.8,21.1v52.1c0,11.4,17.6,17.3,34,18c0.1,0,0.1,0,0.2,0c1,0,1.9-0.4,2.5-1c0.7-0.7,1.1-1.7,1.1-2.7
		c0-2-1.6-3.6-3.6-3.7c-17.3-0.7-26.9-6.7-26.9-10.6V58.3C17.4,62.1,27.2,64.7,37.8,65.2z M71.2,21.1c0,4.3-11.7,10.7-30,10.7
		s-30-6.3-30-10.7c0-4.4,11.7-10.7,30-10.7v0C59.5,10.4,71.2,16.7,71.2,21.1z"/>
</g>
</svg>
