<?xml version="1.0" encoding="utf-8"?>
<!-- Generator: Adobe Illustrator 23.0.1, SVG Export Plug-In . SVG Version: 6.00 Build 0)  -->
<svg version="1.1" id="图层_1" xmlns="http://www.w3.org/2000/svg" xmlns:xlink="http://www.w3.org/1999/xlink" x="0px" y="0px"
	 viewBox="0 0 570 570" style="enable-background:new 0 0 570 570;" xml:space="preserve">
<style type="text/css">
	.st0{fill:#FFC000;}
</style>
<path class="st0" d="M285,472.5l-146.7,77.1c-17.9,9.4-38.7-5.8-35.3-25.7l28-163.3L12.4,245c-14.4-14.1-6.5-38.6,13.5-41.5
	l164-23.8l73.3-148.6c8.9-18.1,34.7-18.1,43.7,0l67.7,137.1c3.5,7.2,10.4,12.2,18.3,13.3l151.3,22c20,2.9,27.9,27.4,13.5,41.5
	L439,360.7L467,524c3.4,19.9-17.5,35-35.3,25.7L285,472.5z"/>
</svg>
