<?xml version="1.0" encoding="utf-8"?>
<!-- Generator: Adobe Illustrator 23.0.1, SVG Export Plug-In . SVG Version: 6.00 Build 0)  -->
<svg version="1.1" id="图层_1" xmlns="http://www.w3.org/2000/svg" xmlns:xlink="http://www.w3.org/1999/xlink" x="0px" y="0px"
	 viewBox="0 0 100 100" style="enable-background:new 0 0 100 100;" xml:space="preserve">
<style type="text/css">
	.st0{fill:#00D1FF;}
</style>
<g>
	<path class="st0" d="M69.7,52c-0.9-0.2-1.9,0-2.7,0.5c-0.8,0.5-1.3,1.3-1.5,2.3c-1.3,6.8-7.8,11.7-15.5,11.7
		c-7.7,0-14.2-4.9-15.5-11.7c-0.2-0.9-0.7-1.7-1.5-2.3c-0.8-0.5-1.7-0.7-2.7-0.5c-1.9,0.4-3.2,2.2-2.8,4.2
		c2,10.1,11.4,17.5,22.5,17.5c11.1,0,20.6-7.3,22.5-17.5c0.2-0.9,0-1.9-0.5-2.7C71.4,52.7,70.6,52.1,69.7,52z"/>
	<path class="st0" d="M50,6.7C24.1,6.7,3,26.1,3,50c0,10.7,4.2,20.9,11.9,28.9l-2.7,9.6c-0.4,1.3,0,2.6,0.9,3.5
		c0.9,0.9,2.3,1.2,3.5,0.9l12.7-3.9c6.4,2.9,13.5,4.4,20.7,4.4c25.9,0,47-19.4,47-43.3C97,26.1,75.9,6.7,50,6.7z M50,86.2
		c-6.6,0-13.1-1.5-18.8-4.3c-0.5-0.2-1-0.4-1.6-0.4c-0.4,0-0.7,0.1-1,0.2l-7.7,2.4l1.5-5.4c0.4-1.3,0-2.6-1-3.6
		C14.1,68.4,10.1,59.5,10.1,50C10.1,30,28,13.8,50,13.8S89.9,30,89.9,50S72,86.2,50,86.2z"/>
</g>
</svg>
