<?xml version="1.0" encoding="utf-8"?>
<!-- Generator: Adobe Illustrator 23.0.1, SVG Export Plug-In . SVG Version: 6.00 Build 0)  -->
<svg version="1.1" id="图层_1" xmlns="http://www.w3.org/2000/svg" xmlns:xlink="http://www.w3.org/1999/xlink" x="0px" y="0px"
	 viewBox="0 0 100 100" style="enable-background:new 0 0 100 100;" xml:space="preserve">
<style type="text/css">
	.st0{fill:#FFC000;}
</style>
<g>
	<path class="st0" d="M28,3H13.1C9,3,5.7,6.3,5.7,10.4v79.2c0,4.1,3.3,7.4,7.4,7.4H28c4.1,0,7.4-3.3,7.4-7.4V10.4
		C35.4,6.3,32.1,3,28,3z"/>
	<path class="st0" d="M86.9,3H72c-4.1,0-7.4,3.3-7.4,7.4v79.2c0,4.1,3.3,7.4,7.4,7.4h14.8c4.1,0,7.4-3.3,7.4-7.4V10.4
		C94.3,6.3,91,3,86.9,3z"/>
</g>
</svg>
