<?xml version="1.0" encoding="utf-8"?>
<!-- Generator: Adobe Illustrator 23.0.1, SVG Export Plug-In . SVG Version: 6.00 Build 0)  -->
<svg version="1.1" id="图层_1" xmlns="http://www.w3.org/2000/svg" xmlns:xlink="http://www.w3.org/1999/xlink" x="0px" y="0px"
	 viewBox="0 0 40 40" style="enable-background:new 0 0 40 40;" xml:space="preserve">
<style type="text/css">
	.st0{fill:#FF4338;}
</style>
<g>
	<g>
		<path class="st0" d="M36.4,16.5C33.9,6.3,30.6-2.6,17.3,0.7C6.6,3.3,0.1,14.1,2.7,24.8C5,33.9,13.1,40,22.1,40
			c1.6,0,3.2-0.2,4.8-0.6C39.5,36.3,38.9,26.6,36.4,16.5z M26.4,37.4c-9.6,2.4-19.3-3.5-21.6-13.1c-1.1-4.6-0.4-9.4,2.1-13.5
			c2.5-4.1,6.4-7,11-8.1c1.7-0.4,3.2-0.6,4.5-0.6c7.7,0,10.1,6.6,12.1,14.9C37.1,27.7,36.7,34.9,26.4,37.4z"/>
	</g>
	<g>
		<path class="st0" d="M27.6,29.3c-3-3.3-5.2-6.6-6.8-9.8c2.4-2.8,4.5-5.9,6.2-9.1c0.4-0.5,0.4-1.1,0-1.7c-0.4-0.5-0.9-0.7-1.5-0.7
			c-0.6,0.1-1,0.4-1.3,0.9c-2,3.5-4.1,6.6-6.5,9.2V9.6c0-0.4-0.2-0.8-0.6-1.1c-0.6-0.5-1.5-0.5-2.2,0c-0.4,0.3-0.6,0.7-0.6,1.1v20.8
			c0,0.4,0.2,0.7,0.5,1c0.7,0.7,1.6,0.7,2.3,0c0.3-0.3,0.5-0.7,0.5-1v-7.6l0.7-0.7c1.7,3.1,4,6.2,6.8,9.3c0.5,0.5,0.9,0.6,1.2,0.6
			c0.1,0,0.2,0,0.4-0.1c1.1-0.4,1.2-1.2,1.2-1.5C28.1,29.8,27.9,29.5,27.6,29.3z"/>
	</g>
</g>
</svg>
