<svg id="图层_1" data-name="图层 1" xmlns="http://www.w3.org/2000/svg" viewBox="0 0 90 90"><defs><style>.cls-1{fill:#c1f4ff;}</style></defs><title>my</title><path class="cls-1" d="M45,49.75h.11a23.11,23.11,0,1,0,0-46.21H45a23.11,23.11,0,0,0,0,46.21Zm-16.17-23A16.14,16.14,0,0,1,45,10.58h.16a16.12,16.12,0,0,1-.05,32.23H45A16.13,16.13,0,0,1,28.85,26.7Z"/><path class="cls-1" d="M85.2,55.43a20.18,20.18,0,0,0-24.84-4.55A33.5,33.5,0,0,1,45,55.13a33.51,33.51,0,0,1-15.34-4.25A20.13,20.13,0,0,0,4.84,55.44,17.84,17.84,0,0,0,.5,67c0,10.76,10.15,19.51,22.63,19.51H66.87c12.48,0,22.63-8.75,22.63-19.5A17.26,17.26,0,0,0,85.2,55.43ZM79.73,60a10.54,10.54,0,0,1,2.67,6.93c-.05,6.88-7.06,12.48-15.64,12.48H23.34C14.75,79.42,7.75,73.83,7.75,67A10.4,10.4,0,0,1,10.43,60a12.81,12.81,0,0,1,9.79-4.49,13.8,13.8,0,0,1,6.34,1.6,40,40,0,0,0,18.52,5,40.06,40.06,0,0,0,18.52-5A13,13,0,0,1,79.73,60Z"/></svg>