<?xml version="1.0" encoding="utf-8"?>
<!-- Generator: Adobe Illustrator 23.0.1, SVG Export Plug-In . SVG Version: 6.00 Build 0)  -->
<svg version="1.1" id="图层_1" xmlns="http://www.w3.org/2000/svg" xmlns:xlink="http://www.w3.org/1999/xlink" x="0px" y="0px"
	 viewBox="0 0 40 40" style="enable-background:new 0 0 40 40;" xml:space="preserve">
<style type="text/css">
	.st0{fill:#FF4338;}
	.st1{opacity:0.7;}
	.st2{opacity:0.5;}
</style>
<g>
	<g>
		<path class="st0" d="M35.3,3.6h-3.9c-2.8,0-5.6,0.6-8.2,1.7l-2.2,1c-0.3,0.1-0.6,0.2-0.9,0.2c-0.3,0-0.6-0.1-0.9-0.2l-2.2-1
			c-2.6-1.1-5.4-1.7-8.2-1.7H4.7C2.1,3.6,0,5.7,0,8.3v20.6c0,2.6,2.1,4.7,4.7,4.7h3.9c2.8,0,5.6,0.6,8.2,1.7l2.2,1
			c0.3,0.1,0.6,0.2,0.9,0.2c0.3,0,0.6-0.1,0.9-0.2l2.2-1c2.6-1.1,5.4-1.7,8.2-1.7h3.9c2.6,0,4.7-2.1,4.7-4.7V8.3
			C40,5.7,37.9,3.6,35.3,3.6z M37.6,28.9c0,1.3-1.1,2.3-2.4,2.3h-3.9c-3.2,0-6.2,0.6-9.1,1.9L20,34l-2.2-1c-2.9-1.2-6-1.9-9.1-1.9
			H4.7c-1.3,0-2.4-1-2.4-2.3V8.3C2.4,7,3.4,6,4.7,6h3.9c2.5,0,4.9,0.5,7.2,1.5l2.2,1c0.6,0.3,1.2,0.4,1.9,0.4c0.6,0,1.3-0.1,1.9-0.4
			l2.2-1c2.3-1,4.7-1.5,7.2-1.5h3.9c1.3,0,2.4,1,2.4,2.3V28.9z"/>
	</g>
	<g class="st1">
		<path class="st0" d="M32.8,17.1c-2.6,0-5.3,0.2-8,1.3c-0.9,0.4-1.6,1.2-1.6,1.8c0,0.4,0,0.8,0,1c0,1.1,0.7,1.7,1.6,1.4
			c2.7-0.7,3.8-1.2,8-1.6c0.9-0.1,1.6-0.6,1.6-1.6v-0.7C34.4,17.8,33.7,17.1,32.8,17.1z"/>
	</g>
	<g class="st2">
		<path class="st0" d="M15.2,11.2L15.2,11.2c-2.7-1.1-5.3-1.3-8-1.3c-0.9,0-1.6,0.7-1.6,1.6v13.8c0,0.9,0.7,1.6,1.6,1.6
			c2.6,0,5.3,0.1,8,0.9c0.9,0.3,1.6-0.4,1.6-1.5c0-0.6,0-12.8,0-13.3C16.7,12.4,16,11.6,15.2,11.2z"/>
	</g>
	<g class="st1">
		<path class="st0" d="M32.8,9.9c-2.6,0-5.3,0.2-8,1.3c-0.9,0.4-1.6,1.2-1.6,1.8c0,0.4,0,1.2,0,1.8c0,1.1,0.7,1.7,1.6,1.4
			c2.7-0.7,3.8-1.2,8-1.6c0.9-0.1,1.6-0.7,1.6-1.6v-1.5C34.4,10.6,33.7,9.9,32.8,9.9z"/>
	</g>
</g>
</svg>
