<?xml version="1.0" encoding="utf-8"?>
<!-- Generator: Adobe Illustrator 23.0.1, SVG Export Plug-In . SVG Version: 6.00 Build 0)  -->
<svg version="1.1" id="图层_1" xmlns="http://www.w3.org/2000/svg" xmlns:xlink="http://www.w3.org/1999/xlink" x="0px" y="0px"
	 viewBox="0 0 40 40" style="enable-background:new 0 0 40 40;" xml:space="preserve">
<style type="text/css">
	.st0{fill:#FF4338;}
</style>
<g>
	<g>
		<path class="st0" d="M11.7,11.9c-0.6,1-1.3,1.9-2.1,2.8l-1.6-1c1.7-1.8,2.9-3.8,3.7-5.9l1.8,0.4c-0.3,0.8-0.6,1.5-0.9,2.1h6.8v1.7
			h-4.5c0.7,1,1.2,1.9,1.6,2.7l-1.7,0.6c-0.5-1.1-1.1-2.2-1.9-3.3H11.7z M8.3,15.9h10.6v-1.8h2v1.8h10.6v1.7H20.8v2.1h8.6v5
			c0,1.4-0.7,2-2.1,2h-1.8L25.1,25l1.7,0.1c0.5,0,0.8-0.3,0.8-0.8v-2.9h-6.7v2.3c2.8,2.7,6.6,4.8,11.2,6.3l-1,1.7
			c-4-1.5-7.4-3.6-10.2-6.2v6.8h-2v-6.7c-2.7,2.6-5.9,4.7-9.5,6.2l-1.1-1.7c4.2-1.5,7.7-3.7,10.6-6.5v-2.3h-6.3v5.3h-1.9v-6.9h8.2
			v-2.1H8.3V15.9z M22.7,11.9c-0.5,0.9-0.9,1.7-1.4,2.4l-1.6-1.1c1.2-1.7,2.1-3.5,2.6-5.5l1.8,0.4c-0.2,0.8-0.5,1.5-0.7,2.1h7.9v1.7
			h-4.9c0.7,1,1.2,1.9,1.6,2.7l-1.7,0.6c-0.5-1-1.1-2.1-1.8-3.3H22.7z"/>
	</g>
</g>
<path class="st0" d="M32.8,39H7.2C3.8,39,1,36.2,1,32.8V7.2C1,3.8,3.8,1,7.2,1h25.7C36.2,1,39,3.8,39,7.2v25.7
	C39,36.2,36.2,39,32.8,39z M7.2,3.1c-2.3,0-4.1,1.8-4.1,4.1v25.7c0,2.3,1.8,4.1,4.1,4.1h25.7c2.3,0,4.1-1.8,4.1-4.1V7.2
	c0-2.3-1.8-4.1-4.1-4.1H7.2z"/>
</svg>
