<?xml version="1.0" encoding="utf-8"?>
<!-- Generator: Adobe Illustrator 23.0.1, SVG Export Plug-In . SVG Version: 6.00 Build 0)  -->
<svg version="1.1" id="图层_1" xmlns="http://www.w3.org/2000/svg" xmlns:xlink="http://www.w3.org/1999/xlink" x="0px" y="0px"
	 viewBox="0 0 40 40" style="enable-background:new 0 0 40 40;" xml:space="preserve">
<style type="text/css">
	.st0{fill:#FF4338;}
</style>
<g>
	<g>
		<polygon class="st0" points="15.6,15.1 13.7,17 17.3,20.7 13.1,20.7 13.1,23.4 18.6,23.4 18.6,25.7 13.1,25.7 13.1,28.5 
			18.6,28.5 18.6,31.5 21.4,31.5 21.4,28.5 26.9,28.5 26.9,25.7 21.4,25.7 21.4,23.4 26.9,23.4 26.9,20.7 22.7,20.7 26.3,17 
			24.4,15.1 20,19.4 		"/>
	</g>
	<g>
		<path class="st0" d="M40,19.1L20,1.6L0,19.1l1.8,2.1L4.3,19v19.4h31.4V19l2.5,2.2L40,19.1z M33,35.7H7V16.6L20,5.2l13,11.3V35.7z"
			/>
	</g>
</g>
</svg>
