<?xml version="1.0" encoding="utf-8"?>
<!-- Generator: Adobe Illustrator 23.0.1, SVG Export Plug-In . SVG Version: 6.00 Build 0)  -->
<svg version="1.1" id="图层_1" xmlns="http://www.w3.org/2000/svg" xmlns:xlink="http://www.w3.org/1999/xlink" x="0px" y="0px"
	 viewBox="0 0 40 40" style="enable-background:new 0 0 40 40;" xml:space="preserve">
<style type="text/css">
	.st0{fill:#FF4338;}
</style>
<g>
	<g>
		<path class="st0" d="M29.2,2.6H3.8v34.8h32.4V11.7h-5.6c-0.8,0-1.4-0.6-1.4-1.4V2.6z M3,0.5h27.2L38.3,11v27.2
			c0,0.8-0.6,1.4-1.4,1.4H3c-0.8,0-1.4-0.6-1.4-1.4V1.9C1.7,1.1,2.3,0.5,3,0.5z"/>
	</g>
	<g>
		<path class="st0" d="M24.8,18.5c2.2,1,2.8,0.9,2.8,2.8c0,0.2,0,0.3,0,0.3H12.4c0,0,0,0.2,0-0.3c0-1.9,0.7-1.8,2.8-2.8
			c0.7-0.4,3.1-1.4,3.1-1.4s0.1-0.5,0-0.9c-0.5-0.3-1.1-1.7-1.2-2.3c-0.5-0.2-0.7-1.2-0.7-1.4c0-0.2,0-0.6,0.4-0.7
			c-0.1-0.3-0.2-0.6-0.2-1c0-0.1,0-0.2,0-0.2c0-0.1,0-0.2,0-0.2c0-1.8,1.5-2.8,3.4-2.8c1.9,0,3.4,1,3.4,2.8c0,0.1,0,0.2,0,0.2
			c0,0.1,0,0.2,0,0.2c0,0.3-0.1,0.6-0.2,1c0.3,0,0.4,0.5,0.4,0.7c0,0.2-0.2,1.1-0.7,1.4c-0.1,0.6-0.6,2-1.2,2.3
			c-0.1,0.4,0,0.9,0,0.9S24.1,18.2,24.8,18.5L24.8,18.5z M10.6,25.8h18.8v2.1H10.6V25.8z M10.6,30.8h18.8v2.1H10.6V30.8z"/>
	</g>
</g>
</svg>
